<?xml version="1.0" standalone="no"?>
<svg xmlns="http://www.w3.org/2000/svg" id="svg-schematic" width="150" height="151.445556640625" viewBox="0 0 150 151.445556640625"><defs><marker id="arrowHead-schematic" viewBox="0 0 10 10" markerWidth="6" markerHeight="6" refX="5" refY="5" orient="auto" fill="#404660"><path d="M 0 0 L 10 5 L 0 10 z"/></marker></defs><style type="text/css">
#svg-schematic text {
  fill: #2d3142;
  font-weight: 400;
  font-family: "Nunito", sans-serif;
}

#svg-schematic text.component-reference,
#svg-schematic text.component-value {
  font-weight: 600;
}

#svg-schematic .arrowGroup path {
  stroke: #404660;
  stroke-width: 1;
  stroke-linecap: round;
  fill: none;
}

#svg-schematic .wireGroup path,
#svg-schematic path.wire {
  stroke: #2d3142;
  stroke-width: 0.75;
  stroke-linecap: round;
  fill: none;
}
// For debugging
#svg-schematic path.wire.temporary_wire {
  stroke: #f7a541 !important;
}</style><g class="circuit-contents schematic" transform="translate(-2185, -2085)"><g data-source-id="209a5bd7f4d4f22d6d5b6d41e81e7325" data-source-name="VCC" data-variant-group="positive_power" data-width="20" data-height="30" class="component" id="part_3" transform="translate(2190,2090) scale(1,1) rotate(0,0,0)"><rect class="helper-box" x="3.1394050121307373" y="7.723880290985107" width="12.95522403717041" height="18.776119232177734" fill="none"/>
 <g transform="translate(0,5)">
  <g transform="translate(2.5001 1.25)">
   <path d="m10.326 13.565c-0.7299-1.4598-1.4598-2.9195-2.1897-4.3792l-0.31038-0.62075c-0.12493-0.24985-0.52744-0.24986-0.65237 0-0.72985 1.4598-1.4597 2.9195-2.1896 4.3792-0.10345 0.20692-0.20691 0.41383-0.31036 0.62075-0.21478 0.42958 0.43566 0.80383 0.65237 0.3704 0.72985-1.4598 1.4597-2.9195 2.1896-4.3792 0.10345-0.20692 0.20691-0.41383 0.31036-0.62075h-0.65237c0.7299 1.4598 1.4598 2.9195 2.1897 4.3792l0.31038 0.62075c0.21635 0.43269 0.86751 0.05987 0.65237-0.3704z" fill="#2d3142"/>
   <path d="m7.4999 8.75 4e-5 10" fill="none" stroke="#2d3142" stroke-miterlimit="10" stroke-width=".75"/>
  </g>
  <text transform="translate(2.5001 1.25)" x="1.23632" y="6.25" fill="#2d3142" font-family="Nunito-Medium, Nunito" font-size="6px" letter-spacing="-.04997em" font-variation-settings="'wght' 500" direction="" flipped="">VCC</text>
  
 </g>
<text class="component-reference component-text moveable-text locked" font-size="4.5px" x="20" y="14" direction="" flipped="" style=""/><text class="component-value component-text moveable-text locked" font-size="4.5px" x="20" y="19" direction="" flipped="" style="">5v</text></g><g data-source-id="89051d68c71f35646f0aad1ce020f0ef" data-source-name="Light-Emitting Diode (red)" data-variant-group="LED" data-width="20" data-height="40" class="component" id="part_4" transform="translate(2190,2140) scale(1,1) rotate(0,0,0)"><rect class="helper-box" x="4.63776159286499" y="3.5" width="13.237276077270508" height="34.375144958496094" fill="none"/>
 <path d="m15 24.625h-9.9997c-0.48328 0-0.48349 0.75 0 0.75h9.9997c0.48328 0 0.48349-0.75 0-0.75z" fill="#2d3142"/>
 <g transform="translate(2.5,5)">
  <path d="m10.534 10h-6.0689c-0.53104 0-0.87643 0.59794-0.63894 1.1061l3.0344 7.2214c0.26326 0.56334 1.0146 0.56334 1.2779 0l3.0344-7.2214c0.23749-0.5082-0.1079-1.1061-0.63894-1.1061z" fill="#e86a59"/>
  <path d="m10.534 9.625h-5.5882c-0.28834 0-0.59607-0.02958-0.86894 0.07845-0.65698 0.26012-0.82005 0.99454-0.57282 1.5974 0.27113 0.66117 0.55377 1.3179 0.83059 1.9766l1.3941 3.3176c0.26479 0.63016 0.49193 1.2983 0.80176 1.908 0.30498 0.60023 1.0746 0.81945 1.619 0.39358 0.24449-0.19123 0.3355-0.43236 0.44911-0.70274l2.5931-6.1711c0.10112-0.24066 0.20438-0.48054 0.30341-0.72206 0.31688-0.77278-0.08591-1.6102-0.96112-1.6759-0.48211-0.03615-0.47925 0.71407 0 0.75 0.72173 0.05411-3e-3 1.2973-0.12583 1.5897l-2.3084 5.4937c-0.1336 0.31793-0.51115 1.4428-0.92393 0.65772-0.28633-0.54456-0.4859-1.1563-0.72401-1.723l-2.205-5.2474c-0.09517-0.2265-0.22677-0.51925 0.02905-0.70664 0.15785-0.11562 0.466-0.06401 0.64677-0.06401h5.6114c0.48328 0 0.48349-0.75 0-0.75v2e-5z" fill="#2d3142"/>
 </g>
 <line x1="10" x2="10" y1="15" y2="5" fill="none" stroke="#2d3142" stroke-miterlimit="10" stroke-width=".75"/>
 <line x1="10" x2="9.9997" y1="35" y2="25" fill="none" stroke="#2d3142" stroke-miterlimit="10" stroke-width=".75"/>
 <g fill="#2d3142">
  <path d="m12.235 27.765 4.3766 4.3771c0.20761 0.20764 0.41522 0.41527 0.62283 0.62291 0.34122 0.34126 0.87212-0.1885 0.53033-0.53033l-4.3766-4.3771c-0.20761-0.20764-0.41522-0.41527-0.62283-0.62291-0.34122-0.34126-0.87212 0.1885-0.53033 0.53033z"/>
  <path d="m17.125 30v2.5l0.375-0.375h-2.5c-0.48328 0-0.48349 0.75 0 0.75h2.5c0.20252 0 0.375-0.17203 0.375-0.375v-2.5c0-0.48328-0.75-0.48349-0.75 0z"/>
  <path d="m12.235 32.765 4.3766 4.3771c0.20761 0.20764 0.41522 0.41527 0.62283 0.62291 0.34122 0.34126 0.87212-0.1885 0.53033-0.53033l-4.3766-4.3771c-0.20761-0.20764-0.41522-0.41527-0.62283-0.62291-0.34122-0.34126-0.87212 0.1885-0.53033 0.53033z"/>
  <path d="m17.125 35v2.5l0.375-0.375h-2.5c-0.48328 0-0.48349 0.75 0 0.75h2.5c0.20252 0 0.375-0.17203 0.375-0.375v-2.5c0-0.48328-0.75-0.48349-0.75 0z"/>
  
  
 </g>
<text class="component-reference component-text moveable-text locked" font-size="4.5px" x="20" y="19" direction="" flipped="" style="">D1</text><text class="component-value component-text moveable-text locked" font-size="4.5px" x="20" y="24" direction="" flipped="" style=""/></g><g data-source-id="c8f58572ce8e6be155fdf2e5c04d5078" data-source-name="Resistor" data-width="10" data-height="40" class="component" id="part_5" transform="translate(2195,2110) scale(1,1) rotate(0,0,0)"><rect class="helper-box" x="0.8775153160095215" y="3.5" width="8.244993209838867" height="33" fill="none"/>
 <g transform="translate(-1.25,5)">
  <path d="m6.25 7.5v-7.5" fill="none" stroke="#2d3142" stroke-miterlimit="10" stroke-width=".75"/>
  <path d="m6.3451 22.137c-0.82502-0.233-1.65-0.466-2.4751-0.699-0.1457-0.04115-0.91704-0.37485-1.0524-0.29723-0.22025 0.12627-0.03683 0.18539 0.04589 0.20508 0.07197 0.01713 0.23259-0.06569 0.30361-0.08575l5.8212-1.644c0.47719-0.13477 1.4367-0.22791 1.3805-0.91386-0.05128-0.62594-0.99659-0.71031-1.4656-0.84277l-5.7921-1.6358c-0.05528-0.01561-0.20777-0.09188-0.26155-0.07387-0.08535 0.02858-0.16663 0.14157-0.03211 0.20904 0.10292 0.05162 0.57696-0.16294 0.68529-0.19354l5.8969-1.6654c0.16501-0.0466 0.34514-0.07869 0.50456-0.1425 0.44779-0.17922 0.66119-0.74707 0.23672-1.0918-0.40996-0.3329-1.2178-0.40061-1.7034-0.53778l-4.693-1.3254c-0.22309-0.06301-0.61821-0.26583-0.85074-0.24026-0.0202 0.00222-0.06908-0.03381-0.08525-0.02408-0.01198 0.00721-0.05661 0.20294-0.02105 0.22918 0.0232 0.01711 0.15015-0.04893 0.18032-0.05092 0.32101-0.02124 0.68915-0.19463 0.9979-0.28182 1.9042-0.53779 3.8137-1.0598 5.7133-1.6135 0.2306-0.06721 0.4555-0.11814 0.59459-0.34093 0.24895-0.39878-0.0042-0.80187-0.40089-0.94691-0.87283-0.31914-1.8138-0.51224-2.7081-0.76481l-0.81941-0.23142c-0.46454-0.1312-0.65572 0.59414-0.19026 0.72559 0.82502 0.233 1.65 0.466 2.4751 0.699 0.1457 0.04115 0.91704 0.37485 1.0524 0.29723 0.22025-0.12627 0.03683-0.18539-0.04589-0.20508-0.07197-0.01713-0.23259 0.06569-0.30361 0.08575l-5.8212 1.644c-0.47719 0.13477-1.4367 0.22791-1.3805 0.91386 0.05128 0.62594 0.99659 0.71031 1.4656 0.84277l5.7921 1.6358c0.05528 0.01561 0.20777 0.09188 0.26155 0.07387 0.08535-0.02858 0.16663-0.14157 0.03211-0.20904-0.10292-0.05162-0.57696 0.16294-0.68529 0.19354l-5.8969 1.6654c-0.16501 0.0466-0.34514 0.07869-0.50456 0.1425-0.44779 0.17922-0.66119 0.74707-0.23672 1.0918 0.40996 0.3329 1.2178 0.40061 1.7034 0.53778l4.693 1.3254c0.22309 0.06301 0.61821 0.26583 0.85074 0.24026 0.0202-0.0022 0.06908 0.03381 0.08525 0.02408 0.01198-0.0072 0.05661-0.20294 0.02105-0.22918-0.0232-0.01711-0.15015 0.04893-0.18032 0.05092-0.32101 0.02124-0.68915 0.19463-0.9979 0.28182-1.9042 0.53779-3.8137 1.0598-5.7133 1.6135-0.2306 0.06721-0.4555 0.11814-0.59459 0.34093-0.24895 0.39878 0.0042 0.80187 0.40089 0.94691 0.87283 0.31914 1.8138 0.51224 2.7081 0.76481l0.81941 0.23142c0.46454 0.1312 0.65572-0.59414 0.19026-0.72559z" fill="#2d3142"/>
  <path d="m6.25 30v-7.5" fill="none" stroke="#2d3142" stroke-miterlimit="10" stroke-width=".75"/>
 </g>
 
 
<text class="component-reference component-text moveable-text locked" font-size="4.5px" x="10" y="19" direction="" flipped="" style="">R1</text><text class="component-value component-text moveable-text locked" font-size="4.5px" x="10" y="24" direction="" flipped="" style="">220Ω</text></g><g data-source-id="213fe2f97fbe3fe3f768124e2676ba30" data-source-name="Light-Emitting Diode (green)" data-variant-group="LED" data-width="20" data-height="40" class="component" id="part_6" transform="translate(2190,2170) scale(1,1) rotate(0,0,0)"><rect class="helper-box" x="4.63776159286499" y="3.5" width="13.237276077270508" height="34.375144958496094" fill="none"/>
 <path d="m15 24.625h-9.9997c-0.48328 0-0.48349 0.75 0 0.75h9.9997c0.48328 0 0.48349-0.75 0-0.75z" fill="#2d3142"/>
 <g transform="translate(2.5 5)">
  <path d="m10.534 10h-6.0689c-0.53104 0-0.87643 0.59794-0.63894 1.1061l3.0344 7.2214c0.26326 0.56334 1.0146 0.56334 1.2779 0l3.0344-7.2214c0.23749-0.5082-0.1079-1.1061-0.63894-1.1061z" fill="#83c480"/>
  <path d="m10.534 9.625h-5.5882c-0.28834 0-0.59607-0.02958-0.86894 0.07845-0.65698 0.26012-0.82005 0.99454-0.57282 1.5974 0.27113 0.66117 0.55377 1.3179 0.83059 1.9766l1.3941 3.3176c0.26479 0.63016 0.49193 1.2983 0.80176 1.908 0.30498 0.60023 1.0746 0.81945 1.619 0.39358 0.24449-0.19123 0.3355-0.43236 0.44911-0.70274l2.5931-6.1711c0.10112-0.24066 0.20438-0.48054 0.30341-0.72206 0.31688-0.77278-0.08591-1.6102-0.96112-1.6759-0.48211-0.03615-0.47925 0.71407 0 0.75 0.72173 0.05411-3e-3 1.2973-0.12583 1.5897l-2.3084 5.4937c-0.1336 0.31793-0.51115 1.4428-0.92393 0.65772-0.28633-0.54456-0.4859-1.1563-0.72401-1.723l-2.205-5.2474c-0.09517-0.2265-0.22677-0.51925 0.02905-0.70664 0.15785-0.11562 0.466-0.06401 0.64677-0.06401h5.6114c0.48328 0 0.48349-0.75 0-0.75v2e-5z" fill="#2d3142"/>
 </g>
 <line x1="10" x2="10" y1="15" y2="5" fill="none" stroke="#2d3142" stroke-miterlimit="10" stroke-width=".75"/>
 <line x1="10" x2="9.9997" y1="35" y2="25" fill="none" stroke="#2d3142" stroke-miterlimit="10" stroke-width=".75"/>
 <g fill="#2d3142">
  <path d="m12.235 27.765 4.3766 4.3771c0.20761 0.20764 0.41522 0.41527 0.62283 0.62291 0.34122 0.34126 0.87212-0.1885 0.53033-0.53033l-4.3766-4.3771c-0.20761-0.20764-0.41522-0.41527-0.62283-0.62291-0.34122-0.34126-0.87212 0.1885-0.53033 0.53033z"/>
  <path d="m17.125 30v2.5l0.375-0.375h-2.5c-0.48328 0-0.48349 0.75 0 0.75h2.5c0.20252 0 0.375-0.17203 0.375-0.375v-2.5c0-0.48328-0.75-0.48349-0.75 0z"/>
  <path d="m12.235 32.765 4.3766 4.3771c0.20761 0.20764 0.41522 0.41527 0.62283 0.62291 0.34122 0.34126 0.87212-0.1885 0.53033-0.53033l-4.3766-4.3771c-0.20761-0.20764-0.41522-0.41527-0.62283-0.62291-0.34122-0.34126-0.87212 0.1885-0.53033 0.53033z"/>
  <path d="m17.125 35v2.5l0.375-0.375h-2.5c-0.48328 0-0.48349 0.75 0 0.75h2.5c0.20252 0 0.375-0.17203 0.375-0.375v-2.5c0-0.48328-0.75-0.48349-0.75 0z"/>
  
  
 </g>
<text class="component-reference component-text moveable-text locked" font-size="4.5px" x="20" y="19" direction="" flipped="" style="">D2</text><text class="component-value component-text moveable-text locked" font-size="4.5px" x="20" y="24" direction="" flipped="" style=""/></g><g data-source-id="e92a36059fcb48956c4d2e8a3921c045" data-source-name="GND" data-width="20" data-height="20" class="component" id="part_7" transform="translate(2190,2200) scale(1,1) rotate(0,0,0)"><rect class="helper-box" x="4.637461185455322" y="3.5" width="10.725078582763672" height="14.375" fill="none"/>
 <g fill="#2d3142">
  <path d="m6.875 15.375h6.25c0.48328 0 0.48349-0.75 0-0.75h-6.25c-0.48328 0-0.48349 0.75 0 0.75z"/>
  <path d="m8.75 17.875h2.5c0.48328 0 0.48349-0.75 0-0.75h-2.5c-0.48328 0-0.48349 0.75 0 0.75z"/>
  <path d="m5 12.875h10c0.48328 0 0.48349-0.75 0-0.75h-10c-0.48328 0-0.48349 0.75 0 0.75z"/>
 </g>
 <path d="m10 12.5v-7.5" fill="none" stroke="#2d3142" stroke-miterlimit="10" stroke-width=".75"/>
 
<text class="component-reference component-text moveable-text locked" font-size="4.5px" x="15" y="-5" direction="" flipped="" style=""/><text class="component-value component-text moveable-text locked" font-size="4.5px" x="15" y="0" direction="" flipped="" style=""/></g><g data-source-id="209a5bd7f4d4f22d6d5b6d41e81e7325" data-source-name="VCC" data-variant-group="positive_power" data-width="20" data-height="30" class="component" id="part_8" transform="translate(2270,2090) scale(1,1) rotate(0,0,0)"><rect class="helper-box" x="3.4328975677490234" y="6.42955207824707" width="11.786786079406738" height="20.07044792175293" fill="none"/>
 <g transform="translate(0,5)">
  <g transform="translate(2.5001 1.25)">
   <path d="m10.326 13.565c-0.7299-1.4598-1.4598-2.9195-2.1897-4.3792l-0.31038-0.62075c-0.12493-0.24985-0.52744-0.24986-0.65237 0-0.72985 1.4598-1.4597 2.9195-2.1896 4.3792-0.10345 0.20692-0.20691 0.41383-0.31036 0.62075-0.21478 0.42958 0.43566 0.80383 0.65237 0.3704 0.72985-1.4598 1.4597-2.9195 2.1896-4.3792 0.10345-0.20692 0.20691-0.41383 0.31036-0.62075h-0.65237c0.7299 1.4598 1.4598 2.9195 2.1897 4.3792l0.31038 0.62075c0.21635 0.43269 0.86751 0.05987 0.65237-0.3704z" fill="#2d3142"/>
   <path d="m7.4999 8.75 4e-5 10" fill="none" stroke="#2d3142" stroke-miterlimit="10" stroke-width=".75"/>
  </g>
  <text transform="translate(2.5001 1.25)" x="1.23632" y="6.25" fill="#2d3142" font-family="Nunito-Medium, Nunito" font-size="6px" letter-spacing="-.04997em" font-variation-settings="'wght' 500" direction="" flipped="">VCC</text>
  
 </g>
<text class="component-reference component-text moveable-text locked" font-size="4.5px" x="20" y="14" direction="" flipped="" style=""/><text class="component-value component-text moveable-text locked" font-size="4.5px" x="20" y="19" direction="" flipped="" style="">5v</text></g><g data-source-id="c8f58572ce8e6be155fdf2e5c04d5078" data-source-name="Resistor" data-width="10" data-height="40" class="component" id="part_11" transform="translate(2260,2120) scale(1,1) rotate(0,0,0)"><rect class="helper-box" x="0.8775153160095215" y="3.5" width="8.244993209838867" height="33" fill="none"/>
 <g transform="translate(-1.25,5)">
  <path d="m6.25 7.5v-7.5" fill="none" stroke="#2d3142" stroke-miterlimit="10" stroke-width=".75"/>
  <path d="m6.3451 22.137c-0.82502-0.233-1.65-0.466-2.4751-0.699-0.1457-0.04115-0.91704-0.37485-1.0524-0.29723-0.22025 0.12627-0.03683 0.18539 0.04589 0.20508 0.07197 0.01713 0.23259-0.06569 0.30361-0.08575l5.8212-1.644c0.47719-0.13477 1.4367-0.22791 1.3805-0.91386-0.05128-0.62594-0.99659-0.71031-1.4656-0.84277l-5.7921-1.6358c-0.05528-0.01561-0.20777-0.09188-0.26155-0.07387-0.08535 0.02858-0.16663 0.14157-0.03211 0.20904 0.10292 0.05162 0.57696-0.16294 0.68529-0.19354l5.8969-1.6654c0.16501-0.0466 0.34514-0.07869 0.50456-0.1425 0.44779-0.17922 0.66119-0.74707 0.23672-1.0918-0.40996-0.3329-1.2178-0.40061-1.7034-0.53778l-4.693-1.3254c-0.22309-0.06301-0.61821-0.26583-0.85074-0.24026-0.0202 0.00222-0.06908-0.03381-0.08525-0.02408-0.01198 0.00721-0.05661 0.20294-0.02105 0.22918 0.0232 0.01711 0.15015-0.04893 0.18032-0.05092 0.32101-0.02124 0.68915-0.19463 0.9979-0.28182 1.9042-0.53779 3.8137-1.0598 5.7133-1.6135 0.2306-0.06721 0.4555-0.11814 0.59459-0.34093 0.24895-0.39878-0.0042-0.80187-0.40089-0.94691-0.87283-0.31914-1.8138-0.51224-2.7081-0.76481l-0.81941-0.23142c-0.46454-0.1312-0.65572 0.59414-0.19026 0.72559 0.82502 0.233 1.65 0.466 2.4751 0.699 0.1457 0.04115 0.91704 0.37485 1.0524 0.29723 0.22025-0.12627 0.03683-0.18539-0.04589-0.20508-0.07197-0.01713-0.23259 0.06569-0.30361 0.08575l-5.8212 1.644c-0.47719 0.13477-1.4367 0.22791-1.3805 0.91386 0.05128 0.62594 0.99659 0.71031 1.4656 0.84277l5.7921 1.6358c0.05528 0.01561 0.20777 0.09188 0.26155 0.07387 0.08535-0.02858 0.16663-0.14157 0.03211-0.20904-0.10292-0.05162-0.57696 0.16294-0.68529 0.19354l-5.8969 1.6654c-0.16501 0.0466-0.34514 0.07869-0.50456 0.1425-0.44779 0.17922-0.66119 0.74707-0.23672 1.0918 0.40996 0.3329 1.2178 0.40061 1.7034 0.53778l4.693 1.3254c0.22309 0.06301 0.61821 0.26583 0.85074 0.24026 0.0202-0.0022 0.06908 0.03381 0.08525 0.02408 0.01198-0.0072 0.05661-0.20294 0.02105-0.22918-0.0232-0.01711-0.15015 0.04893-0.18032 0.05092-0.32101 0.02124-0.68915 0.19463-0.9979 0.28182-1.9042 0.53779-3.8137 1.0598-5.7133 1.6135-0.2306 0.06721-0.4555 0.11814-0.59459 0.34093-0.24895 0.39878 0.0042 0.80187 0.40089 0.94691 0.87283 0.31914 1.8138 0.51224 2.7081 0.76481l0.81941 0.23142c0.46454 0.1312 0.65572-0.59414 0.19026-0.72559z" fill="#2d3142"/>
  <path d="m6.25 30v-7.5" fill="none" stroke="#2d3142" stroke-miterlimit="10" stroke-width=".75"/>
 </g>
 
 
<text class="component-reference component-text moveable-text locked" font-size="4.5px" x="10" y="19" direction="" flipped="" style="">R1</text><text class="component-value component-text moveable-text locked" font-size="4.5px" x="10" y="24" direction="" flipped="" style="">220Ω</text></g><g data-source-id="c8f58572ce8e6be155fdf2e5c04d5078" data-source-name="Resistor" data-width="10" data-height="40" class="component" id="part_12" transform="translate(2290,2120) scale(1,1) rotate(0,0,0)"><rect class="helper-box" x="0.8775153160095215" y="3.5" width="8.244993209838867" height="33" fill="none"/>
 <g transform="translate(-1.25,5)">
  <path d="m6.25 7.5v-7.5" fill="none" stroke="#2d3142" stroke-miterlimit="10" stroke-width=".75"/>
  <path d="m6.3451 22.137c-0.82502-0.233-1.65-0.466-2.4751-0.699-0.1457-0.04115-0.91704-0.37485-1.0524-0.29723-0.22025 0.12627-0.03683 0.18539 0.04589 0.20508 0.07197 0.01713 0.23259-0.06569 0.30361-0.08575l5.8212-1.644c0.47719-0.13477 1.4367-0.22791 1.3805-0.91386-0.05128-0.62594-0.99659-0.71031-1.4656-0.84277l-5.7921-1.6358c-0.05528-0.01561-0.20777-0.09188-0.26155-0.07387-0.08535 0.02858-0.16663 0.14157-0.03211 0.20904 0.10292 0.05162 0.57696-0.16294 0.68529-0.19354l5.8969-1.6654c0.16501-0.0466 0.34514-0.07869 0.50456-0.1425 0.44779-0.17922 0.66119-0.74707 0.23672-1.0918-0.40996-0.3329-1.2178-0.40061-1.7034-0.53778l-4.693-1.3254c-0.22309-0.06301-0.61821-0.26583-0.85074-0.24026-0.0202 0.00222-0.06908-0.03381-0.08525-0.02408-0.01198 0.00721-0.05661 0.20294-0.02105 0.22918 0.0232 0.01711 0.15015-0.04893 0.18032-0.05092 0.32101-0.02124 0.68915-0.19463 0.9979-0.28182 1.9042-0.53779 3.8137-1.0598 5.7133-1.6135 0.2306-0.06721 0.4555-0.11814 0.59459-0.34093 0.24895-0.39878-0.0042-0.80187-0.40089-0.94691-0.87283-0.31914-1.8138-0.51224-2.7081-0.76481l-0.81941-0.23142c-0.46454-0.1312-0.65572 0.59414-0.19026 0.72559 0.82502 0.233 1.65 0.466 2.4751 0.699 0.1457 0.04115 0.91704 0.37485 1.0524 0.29723 0.22025-0.12627 0.03683-0.18539-0.04589-0.20508-0.07197-0.01713-0.23259 0.06569-0.30361 0.08575l-5.8212 1.644c-0.47719 0.13477-1.4367 0.22791-1.3805 0.91386 0.05128 0.62594 0.99659 0.71031 1.4656 0.84277l5.7921 1.6358c0.05528 0.01561 0.20777 0.09188 0.26155 0.07387 0.08535-0.02858 0.16663-0.14157 0.03211-0.20904-0.10292-0.05162-0.57696 0.16294-0.68529 0.19354l-5.8969 1.6654c-0.16501 0.0466-0.34514 0.07869-0.50456 0.1425-0.44779 0.17922-0.66119 0.74707-0.23672 1.0918 0.40996 0.3329 1.2178 0.40061 1.7034 0.53778l4.693 1.3254c0.22309 0.06301 0.61821 0.26583 0.85074 0.24026 0.0202-0.0022 0.06908 0.03381 0.08525 0.02408 0.01198-0.0072 0.05661-0.20294 0.02105-0.22918-0.0232-0.01711-0.15015 0.04893-0.18032 0.05092-0.32101 0.02124-0.68915 0.19463-0.9979 0.28182-1.9042 0.53779-3.8137 1.0598-5.7133 1.6135-0.2306 0.06721-0.4555 0.11814-0.59459 0.34093-0.24895 0.39878 0.0042 0.80187 0.40089 0.94691 0.87283 0.31914 1.8138 0.51224 2.7081 0.76481l0.81941 0.23142c0.46454 0.1312 0.65572-0.59414 0.19026-0.72559z" fill="#2d3142"/>
  <path d="m6.25 30v-7.5" fill="none" stroke="#2d3142" stroke-miterlimit="10" stroke-width=".75"/>
 </g>
 
 
<text class="component-reference component-text moveable-text locked" font-size="4.5px" x="10" y="19.30352238805972" direction="" flipped="" style="">R2</text><text class="component-value component-text moveable-text locked" font-size="4.5px" x="10" y="24" direction="" flipped="" style="">220Ω</text></g><path class="wire" d="M2280,2115 V2125" id="wire_segment13"/><path class="wire" d="M2265,2125 H2280" id="wire_segment14"/><path class="wire" d="M2280,2125 H2295" id="wire_segment14-0"/><g data-source-id="89051d68c71f35646f0aad1ce020f0ef" data-source-name="Light-Emitting Diode (red)" data-variant-group="LED" data-width="20" data-height="40" class="component" id="part_17" transform="translate(2255,2150) scale(1,1) rotate(0,0,0)"><rect class="helper-box" x="4.63776159286499" y="3.5" width="13.237276077270508" height="34.375144958496094" fill="none"/>
 <path d="m15 24.625h-9.9997c-0.48328 0-0.48349 0.75 0 0.75h9.9997c0.48328 0 0.48349-0.75 0-0.75z" fill="#2d3142"/>
 <g transform="translate(2.5,5)">
  <path d="m10.534 10h-6.0689c-0.53104 0-0.87643 0.59794-0.63894 1.1061l3.0344 7.2214c0.26326 0.56334 1.0146 0.56334 1.2779 0l3.0344-7.2214c0.23749-0.5082-0.1079-1.1061-0.63894-1.1061z" fill="#e86a59"/>
  <path d="m10.534 9.625h-5.5882c-0.28834 0-0.59607-0.02958-0.86894 0.07845-0.65698 0.26012-0.82005 0.99454-0.57282 1.5974 0.27113 0.66117 0.55377 1.3179 0.83059 1.9766l1.3941 3.3176c0.26479 0.63016 0.49193 1.2983 0.80176 1.908 0.30498 0.60023 1.0746 0.81945 1.619 0.39358 0.24449-0.19123 0.3355-0.43236 0.44911-0.70274l2.5931-6.1711c0.10112-0.24066 0.20438-0.48054 0.30341-0.72206 0.31688-0.77278-0.08591-1.6102-0.96112-1.6759-0.48211-0.03615-0.47925 0.71407 0 0.75 0.72173 0.05411-3e-3 1.2973-0.12583 1.5897l-2.3084 5.4937c-0.1336 0.31793-0.51115 1.4428-0.92393 0.65772-0.28633-0.54456-0.4859-1.1563-0.72401-1.723l-2.205-5.2474c-0.09517-0.2265-0.22677-0.51925 0.02905-0.70664 0.15785-0.11562 0.466-0.06401 0.64677-0.06401h5.6114c0.48328 0 0.48349-0.75 0-0.75v2e-5z" fill="#2d3142"/>
 </g>
 <line x1="10" x2="10" y1="15" y2="5" fill="none" stroke="#2d3142" stroke-miterlimit="10" stroke-width=".75"/>
 <line x1="10" x2="9.9997" y1="35" y2="25" fill="none" stroke="#2d3142" stroke-miterlimit="10" stroke-width=".75"/>
 <g fill="#2d3142">
  <path d="m12.235 27.765 4.3766 4.3771c0.20761 0.20764 0.41522 0.41527 0.62283 0.62291 0.34122 0.34126 0.87212-0.1885 0.53033-0.53033l-4.3766-4.3771c-0.20761-0.20764-0.41522-0.41527-0.62283-0.62291-0.34122-0.34126-0.87212 0.1885-0.53033 0.53033z"/>
  <path d="m17.125 30v2.5l0.375-0.375h-2.5c-0.48328 0-0.48349 0.75 0 0.75h2.5c0.20252 0 0.375-0.17203 0.375-0.375v-2.5c0-0.48328-0.75-0.48349-0.75 0z"/>
  <path d="m12.235 32.765 4.3766 4.3771c0.20761 0.20764 0.41522 0.41527 0.62283 0.62291 0.34122 0.34126 0.87212-0.1885 0.53033-0.53033l-4.3766-4.3771c-0.20761-0.20764-0.41522-0.41527-0.62283-0.62291-0.34122-0.34126-0.87212 0.1885-0.53033 0.53033z"/>
  <path d="m17.125 35v2.5l0.375-0.375h-2.5c-0.48328 0-0.48349 0.75 0 0.75h2.5c0.20252 0 0.375-0.17203 0.375-0.375v-2.5c0-0.48328-0.75-0.48349-0.75 0z"/>
  
  
 </g>
<text class="component-reference component-text moveable-text locked" font-size="4.5px" x="20" y="19" direction="" flipped="" style="">D3</text><text class="component-value component-text moveable-text locked" font-size="4.5px" x="20" y="24" direction="" flipped="" style=""/></g><g data-source-id="213fe2f97fbe3fe3f768124e2676ba30" data-source-name="Light-Emitting Diode (green)" data-variant-group="LED" data-width="20" data-height="40" class="component" id="part_18" transform="translate(2285,2150) scale(1,1) rotate(0,0,0)"><rect class="helper-box" x="4.63776159286499" y="3.5" width="13.237276077270508" height="34.375144958496094" fill="none"/>
 <path d="m15 24.625h-9.9997c-0.48328 0-0.48349 0.75 0 0.75h9.9997c0.48328 0 0.48349-0.75 0-0.75z" fill="#2d3142"/>
 <g transform="translate(2.5 5)">
  <path d="m10.534 10h-6.0689c-0.53104 0-0.87643 0.59794-0.63894 1.1061l3.0344 7.2214c0.26326 0.56334 1.0146 0.56334 1.2779 0l3.0344-7.2214c0.23749-0.5082-0.1079-1.1061-0.63894-1.1061z" fill="#83c480"/>
  <path d="m10.534 9.625h-5.5882c-0.28834 0-0.59607-0.02958-0.86894 0.07845-0.65698 0.26012-0.82005 0.99454-0.57282 1.5974 0.27113 0.66117 0.55377 1.3179 0.83059 1.9766l1.3941 3.3176c0.26479 0.63016 0.49193 1.2983 0.80176 1.908 0.30498 0.60023 1.0746 0.81945 1.619 0.39358 0.24449-0.19123 0.3355-0.43236 0.44911-0.70274l2.5931-6.1711c0.10112-0.24066 0.20438-0.48054 0.30341-0.72206 0.31688-0.77278-0.08591-1.6102-0.96112-1.6759-0.48211-0.03615-0.47925 0.71407 0 0.75 0.72173 0.05411-3e-3 1.2973-0.12583 1.5897l-2.3084 5.4937c-0.1336 0.31793-0.51115 1.4428-0.92393 0.65772-0.28633-0.54456-0.4859-1.1563-0.72401-1.723l-2.205-5.2474c-0.09517-0.2265-0.22677-0.51925 0.02905-0.70664 0.15785-0.11562 0.466-0.06401 0.64677-0.06401h5.6114c0.48328 0 0.48349-0.75 0-0.75v2e-5z" fill="#2d3142"/>
 </g>
 <line x1="10" x2="10" y1="15" y2="5" fill="none" stroke="#2d3142" stroke-miterlimit="10" stroke-width=".75"/>
 <line x1="10" x2="9.9997" y1="35" y2="25" fill="none" stroke="#2d3142" stroke-miterlimit="10" stroke-width=".75"/>
 <g fill="#2d3142">
  <path d="m12.235 27.765 4.3766 4.3771c0.20761 0.20764 0.41522 0.41527 0.62283 0.62291 0.34122 0.34126 0.87212-0.1885 0.53033-0.53033l-4.3766-4.3771c-0.20761-0.20764-0.41522-0.41527-0.62283-0.62291-0.34122-0.34126-0.87212 0.1885-0.53033 0.53033z"/>
  <path d="m17.125 30v2.5l0.375-0.375h-2.5c-0.48328 0-0.48349 0.75 0 0.75h2.5c0.20252 0 0.375-0.17203 0.375-0.375v-2.5c0-0.48328-0.75-0.48349-0.75 0z"/>
  <path d="m12.235 32.765 4.3766 4.3771c0.20761 0.20764 0.41522 0.41527 0.62283 0.62291 0.34122 0.34126 0.87212-0.1885 0.53033-0.53033l-4.3766-4.3771c-0.20761-0.20764-0.41522-0.41527-0.62283-0.62291-0.34122-0.34126-0.87212 0.1885-0.53033 0.53033z"/>
  <path d="m17.125 35v2.5l0.375-0.375h-2.5c-0.48328 0-0.48349 0.75 0 0.75h2.5c0.20252 0 0.375-0.17203 0.375-0.375v-2.5c0-0.48328-0.75-0.48349-0.75 0z"/>
  
  
 </g>
<text class="component-reference component-text moveable-text locked" font-size="4.5px" x="20" y="19" direction="" flipped="" style="">D4</text><text class="component-value component-text moveable-text locked" font-size="4.5px" x="20" y="24" direction="" flipped="" style=""/></g><g data-source-id="e92a36059fcb48956c4d2e8a3921c045" data-source-name="GND" data-width="20" data-height="20" class="component" id="part_19" transform="translate(2270,2200) scale(1,1) rotate(0,0,0)"><rect class="helper-box" x="4.637461185455322" y="3.5" width="10.725078582763672" height="14.375" fill="none"/>
 <g fill="#2d3142">
  <path d="m6.875 15.375h6.25c0.48328 0 0.48349-0.75 0-0.75h-6.25c-0.48328 0-0.48349 0.75 0 0.75z"/>
  <path d="m8.75 17.875h2.5c0.48328 0 0.48349-0.75 0-0.75h-2.5c-0.48328 0-0.48349 0.75 0 0.75z"/>
  <path d="m5 12.875h10c0.48328 0 0.48349-0.75 0-0.75h-10c-0.48328 0-0.48349 0.75 0 0.75z"/>
 </g>
 <path d="m10 12.5v-7.5" fill="none" stroke="#2d3142" stroke-miterlimit="10" stroke-width=".75"/>
 
<text class="component-reference component-text moveable-text locked" font-size="4.5px" x="15" y="-5" direction="" flipped="" style=""/><text class="component-value component-text moveable-text locked" font-size="4.5px" x="15" y="0" direction="" flipped="" style=""/></g><path class="wire" d="M2280,2195 V2205" id="wire_segment29"/><path class="wire" d="M2265,2195 H2280" id="wire_segment30"/><path class="wire" d="M2280,2195 H2295" id="wire_segment30-0"/><path class="wire" d="M2265,2185 V2195" id="wire_segment31"/><path class="wire" d="M2295,2185 V2195" id="wire_segment35"/><circle cx="2280" cy="2125" r="1.5" class="blob" fill="#2d3142"/><circle cx="2280" cy="2195" r="1.5" class="blob" fill="#2d3142"/></g><g transform="translate(37.5, 138.445556640625) scale(0.5)" opacity="0.35">
 <g transform="translate(-2.5 -2.5)">
  <g transform="matrix(.5 0 0 .5 68.316 2.5)">
   <path d="m-125.48 22q-0.38133 0-0.58933-0.19067-0.19067-0.208-0.19067-0.58933v-10.66q0-0.38133 0.19067-0.572 0.208-0.208 0.58933-0.208h3.3453q2.964 0 4.576 1.56 1.612 1.56 1.612 4.5413 0 1.4907-0.41599 2.6347-0.39867 1.1267-1.196 1.9067-0.79733 0.78-1.9413 1.1787t-2.6347 0.39867zm0.64133-1.2133h2.6q1.2133 0 2.0973-0.312 0.90133-0.312 1.4907-0.91866 0.60667-0.60667 0.90133-1.5253 0.29467-0.936 0.29467-2.1493 0-2.444-1.196-3.6573-1.196-1.2307-3.588-1.2307h-2.6zm15.045 1.3693q-1.3347 0-2.3053-0.52-0.95333-0.53733-1.4907-1.508-0.52-0.97066-0.52-2.3227 0-1.3173 0.52-2.288 0.52-0.988 1.4213-1.5427 0.91867-0.55466 2.1147-0.55466 0.84933 0 1.5253 0.29467 0.676 0.27733 1.144 0.81466 0.48534 0.53733 0.728 1.3 0.26 0.76267 0.26 1.716 0 0.27733-0.156 0.416-0.156 0.12133-0.45066 0.12133h-6.032v-0.91866h5.7026l-0.27733 0.22533q0-0.936-0.27733-1.5773-0.27733-0.65866-0.81467-1.0053-0.51999-0.34667-1.3173-0.34667-0.88399 0-1.508 0.416-0.60667 0.39867-0.91867 1.1267-0.312 0.71067-0.312 1.664v0.104q0 1.5947 0.76267 2.4267 0.78 0.832 2.2013 0.832 0.58933 0 1.1613-0.156 0.58933-0.156 1.144-0.52 0.24266-0.156 0.43333-0.13867 0.208 0 0.32933 0.12133 0.12133 0.104 0.156 0.27733 0.052 0.156-0.0347 0.34667-0.0693 0.19067-0.29466 0.32933-0.572 0.416-1.352 0.64133t-1.5427 0.22533zm8.268 0q-0.78 0-1.5773-0.19067-0.78-0.19067-1.456-0.65866-0.17334-0.12133-0.24267-0.27733-0.0693-0.17333-0.052-0.32933 0.0347-0.17333 0.13867-0.29467 0.12133-0.12133 0.27733-0.13867 0.17333-0.03467 0.38133 0.06933 0.676 0.416 1.3 0.58933 0.64133 0.156 1.2653 0.156 0.988 0 1.4907-0.364 0.50267-0.364 0.50267-0.988 0-0.48533-0.32933-0.76266-0.32934-0.29467-1.04-0.45067l-1.5773-0.34667q-1.092-0.22533-1.6293-0.78-0.52-0.55466-0.52-1.4387 0-0.78 0.39866-1.3347 0.416-0.572 1.1613-0.884 0.74533-0.312 1.7333-0.312 0.76266 0 1.4387 0.208 0.69333 0.19067 1.248 0.624 0.17333 0.12133 0.22533 0.29467 0.06933 0.156 0.01733 0.32933-0.03467 0.156-0.156 0.27733-0.12133 0.104-0.29467 0.12133-0.17333 0.01733-0.364-0.104-0.52-0.34667-1.0573-0.50267-0.53734-0.17333-1.0573-0.17333-0.97067 0-1.4733 0.38133-0.50266 0.38133-0.50266 1.0053 0 0.48533 0.312 0.79733t0.97066 0.45067l1.5773 0.32933q1.1267 0.24267 1.6813 0.78 0.572 0.52 0.572 1.4213 0 1.144-0.91866 1.82-0.91867 0.676-2.444 0.676zm6.188-0.06933q-0.34667 0-0.52-0.19067-0.17333-0.208-0.17333-0.572v-7.0893q0-0.364 0.17333-0.55467t0.52-0.19067q0.32933 0 0.52 0.19067t0.19067 0.55467v7.0893q0 0.364-0.19067 0.572-0.17333 0.19067-0.52 0.19067zm0-10.539q-0.43333 0-0.676-0.22533-0.24267-0.24267-0.24267-0.64133 0-0.416 0.24267-0.624 0.24267-0.22533 0.676-0.22533 0.45067 0 0.676 0.22533 0.24267 0.208 0.24267 0.624 0 0.39867-0.24267 0.64133-0.22533 0.22533-0.676 0.22533zm7.0547 13.728q-0.91866 0-1.8027-0.22533-0.86666-0.208-1.5773-0.676-0.208-0.12133-0.27733-0.29467-0.052-0.17333-0.01733-0.34667 0.03467-0.156 0.156-0.29467 0.12133-0.12133 0.27733-0.156 0.17333-0.03467 0.34667 0.052 0.76266 0.468 1.456 0.64133t1.3693 0.17333q1.2307 0 1.8547-0.65866 0.64133-0.65867 0.64133-1.9067v-1.9587h0.17333q-0.26 1.0053-1.1093 1.5947-0.832 0.58933-1.9587 0.58933-1.1613 0-2.0107-0.52-0.84933-0.53733-1.3173-1.4907-0.45067-0.95333-0.45067-2.2013 0-0.936 0.26-1.6987 0.26-0.78 0.74533-1.3173 0.50267-0.55467 1.196-0.84933 0.71066-0.312 1.5773-0.312 1.144 0 1.976 0.58933 0.832 0.572 1.0747 1.56l-0.17333 0.208v-1.612q0-0.34667 0.17333-0.52 0.19067-0.19067 0.52-0.19067 0.34667 0 0.52 0.19067 0.17333 0.17333 0.17333 0.52v7.228q0 1.924-0.97066 2.8947-0.95333 0.988-2.8253 0.988zm-0.208-4.6107q0.81466 0 1.404-0.364 0.58933-0.38133 0.90133-1.0747 0.32933-0.69333 0.32933-1.6293 0-1.404-0.71066-2.2187-0.71066-0.832-1.924-0.832-0.79733 0-1.3867 0.38133-0.58933 0.364-0.91866 1.0573-0.312 0.676-0.312 1.612 0 1.404 0.71067 2.236 0.71066 0.832 1.9067 0.832zm7.332 1.456q-0.34667 0-0.52-0.19067t-0.17333-0.53733v-7.228q0-0.34667 0.17333-0.52 0.17333-0.19067 0.50266-0.19067 0.32933 0 0.50267 0.19067 0.19067 0.17333 0.19067 0.52v1.4907l-0.19067-0.208q0.364-1.0053 1.1787-1.508 0.832-0.52 1.9067-0.52 1.0053 0 1.664 0.364 0.676 0.364 1.0053 1.1093 0.32933 0.728 0.32933 1.8547v4.6453q0 0.34667-0.19067 0.53733-0.17333 0.19067-0.50267 0.19067-0.34667 0-0.53733-0.19067-0.17333-0.19067-0.17333-0.53733v-4.5587q0-1.1787-0.468-1.716-0.45067-0.55467-1.456-0.55467-1.1613 0-1.8547 0.728-0.676 0.71066-0.676 1.9067v4.1947q0 0.728-0.71066 0.728zm12.948 0.03467q-1.3347 0-2.3053-0.52-0.95333-0.53733-1.4907-1.508-0.52-0.97066-0.52-2.3227 0-1.3173 0.52-2.288 0.52-0.988 1.4213-1.5427 0.91866-0.55466 2.1147-0.55466 0.84933 0 1.5253 0.29467 0.676 0.27733 1.144 0.81466 0.48533 0.53733 0.728 1.3 0.26 0.76267 0.26 1.716 0 0.27733-0.156 0.416-0.156 0.12133-0.45067 0.12133h-6.032v-0.91866h5.7027l-0.27733 0.22533q0-0.936-0.27733-1.5773-0.27733-0.65866-0.81466-1.0053-0.52-0.34667-1.3173-0.34667-0.884 0-1.508 0.416-0.60667 0.39867-0.91866 1.1267-0.312 0.71067-0.312 1.664v0.104q0 1.5947 0.76266 2.4267 0.78 0.832 2.2013 0.832 0.58933 0 1.1613-0.156 0.58933-0.156 1.144-0.52 0.24267-0.156 0.43333-0.13867 0.208 0 0.32933 0.12133 0.12133 0.104 0.156 0.27733 0.052 0.156-0.03467 0.34667-0.06933 0.19067-0.29467 0.32933-0.572 0.416-1.352 0.64133-0.78 0.22533-1.5427 0.22533zm8.632 0q-1.1267 0-1.976-0.53733-0.832-0.53733-1.3-1.508-0.45067-0.988-0.45067-2.3227 0-1.352 0.45067-2.3227 0.468-0.988 1.3-1.508 0.84933-0.53733 1.976-0.53733 1.144 0 1.9587 0.572 0.81466 0.572 1.092 1.5427h-0.19067v-5.1653q0-0.34667 0.17333-0.52 0.19067-0.19067 0.53733-0.19067 0.32933 0 0.50267 0.19067 0.19067 0.17333 0.19067 0.52v11.024q0 0.34667-0.17333 0.53733t-0.52 0.19067q-0.32933 0-0.52-0.19067-0.17333-0.19067-0.17333-0.53733v-1.6467l0.19067 0.24267q-0.27733 0.988-1.1093 1.5773-0.81466 0.58933-1.9587 0.58933zm0.29467-1.1267q0.78 0 1.3693-0.38133 0.58933-0.38133 0.90133-1.1093 0.32933-0.728 0.32933-1.7507 0-1.5773-0.71066-2.4093-0.69333-0.832-1.8893-0.832-0.79733 0-1.3867 0.38133-0.572 0.364-0.90133 1.092-0.312 0.71066-0.312 1.768 0 1.56 0.71067 2.4093 0.71066 0.832 1.8893 0.832zm15.184 1.092q-0.312 0-0.50267-0.156-0.19067-0.17333-0.312-0.50266l-3.8307-10.937q-0.12133-0.364 0.052-0.60667 0.19067-0.26 0.58933-0.26 0.29467 0 0.468 0.156 0.17333 0.13867 0.29467 0.45067l3.588 10.521h-0.60666l3.6573-10.469q0.12133-0.32933 0.29467-0.48533 0.17333-0.17333 0.468-0.17333 0.27733 0 0.43333 0.17333 0.17333 0.156 0.29467 0.48533l3.6053 10.469h-0.53733l3.6227-10.521q0.08667-0.29467 0.26-0.45067 0.19067-0.156 0.48533-0.156 0.364 0 0.53733 0.24267 0.17333 0.24267 0.03467 0.624l-3.848 10.937q-0.12133 0.32933-0.312 0.50266-0.17333 0.156-0.50267 0.156-0.312 0-0.50266-0.156-0.17333-0.17333-0.312-0.50266l-3.484-10.036h0.38133l-3.5187 10.036q-0.12133 0.32933-0.29467 0.50266-0.17333 0.156-0.50267 0.156zm16.077-0.03467q-0.34667 0-0.52-0.19067-0.17333-0.208-0.17333-0.572v-7.0893q0-0.364 0.17333-0.55467t0.52-0.19067q0.32933 0 0.52 0.19067t0.19067 0.55467v7.0893q0 0.364-0.19067 0.572-0.17333 0.19067-0.52 0.19067zm0-10.539q-0.43333 0-0.676-0.22533-0.24267-0.24267-0.24267-0.64133 0-0.416 0.24267-0.624 0.24267-0.22533 0.676-0.22533 0.45067 0 0.676 0.22533 0.24267 0.208 0.24267 0.624 0 0.39867-0.24267 0.64133-0.22533 0.22533-0.676 0.22533zm6.708 10.608q-0.988 0-1.664-0.34667-0.65866-0.364-0.988-1.04-0.32933-0.69333-0.32933-1.6813v-4.42h-1.1613q-0.29467 0-0.45067-0.13867-0.156-0.156-0.156-0.416 0-0.26 0.156-0.39867 0.156-0.13867 0.45067-0.13867h1.1613v-1.9933q0-0.34667 0.19067-0.52 0.19067-0.19067 0.52-0.19067t0.50267 0.19067q0.19067 0.17333 0.19067 0.52v1.9933h2.184q0.29467 0 0.45066 0.13867 0.156 0.13867 0.156 0.39867 0 0.26-0.156 0.416-0.156 0.13867-0.45066 0.13867h-2.184v4.2813q0 0.988 0.416 1.508 0.416 0.50267 1.352 0.50267 0.32933 0 0.55467-0.06933 0.24267-0.06933 0.39867-0.06933 0.156-0.01733 0.26 0.104 0.104 0.12133 0.104 0.416 0 0.208-0.08667 0.38133-0.06933 0.17333-0.26 0.24267-0.208 0.06933-0.55466 0.12133-0.32933 0.06933-0.60667 0.06933zm3.4859-0.03467q-0.34667 0-0.52-0.19067t-0.17333-0.53733v-11.024q0-0.34667 0.17333-0.52 0.17333-0.19067 0.52-0.19067 0.32933 0 0.52 0.19067 0.19067 0.17333 0.19067 0.52v5.0787h-0.22533q0.364-1.0053 1.1787-1.508 0.832-0.52 1.9067-0.52 1.0053 0 1.664 0.364 0.676 0.364 1.0053 1.1093 0.32933 0.728 0.32933 1.8547v4.6453q0 0.34667-0.19067 0.53733-0.17333 0.19067-0.50267 0.19067-0.34667 0-0.53733-0.19067-0.17333-0.19067-0.17333-0.53733v-4.5587q0-1.1787-0.468-1.716-0.45067-0.55467-1.456-0.55467-1.1613 0-1.8547 0.728-0.676 0.71066-0.676 1.9067v4.1947q0 0.728-0.71066 0.728z" fill="#2d3142" aria-label="Designed With"/>
   <path d="m16 3.2c-7.0692 0-12.8 5.7308-12.8 12.8 0 7.0692 5.7308 12.8 12.8 12.8 0.8837 0 1.6 0.7163 1.6 1.6 0 0.8836-0.7163 1.6-1.6 1.6-8.8366 0-16-7.1635-16-16 0-8.8366 7.1634-16 16-16 0.8837 0 1.6 0.71634 1.6 1.6 0 0.88366-0.7163 1.6-1.6 1.6z" clip-rule="evenodd" fill="#f7a541" fill-rule="evenodd"/>
   <path d="m19.121 31.696c-1.0106 0.1999-2.0543 0.3045-3.1208 0.3045-0.8837 0-1.6-0.7163-1.6-1.6s0.7163-1.6 1.6-1.6c0.8569 0 1.6926-0.084 2.4998-0.2437 0.8669-0.1715 1.7086 0.3922 1.8801 1.2591s-0.3922 1.7086-1.2591 1.8801zm3.5505-2.8308c-0.4916-0.7343-0.2948-1.7281 0.4395-2.2197 1.3965-0.935 2.5992-2.1377 3.5342-3.5342 0.4916-0.7343 1.4854-0.9311 2.2197-0.4395 0.7342 0.4916 0.931 1.4854 0.4394 2.2197-1.1677 1.7441-2.669 3.2454-4.4131 4.4131-0.7343 0.4916-1.7281 0.2948-2.2197-0.4394zm7.1441-8.4848c-0.8669-0.1715-1.4306-1.0132-1.2591-1.8801 0.1597-0.8072 0.2437-1.6429 0.2437-2.4998s-0.084-1.6926-0.2437-2.4998c-0.1715-0.8669 0.3922-1.7086 1.2591-1.8801s1.7086 0.3922 1.8801 1.2591c0.1999 1.0106 0.3045 2.0543 0.3045 3.1208s-0.1046 2.1102-0.3045 3.1208c-0.1715 0.8669-1.0132 1.4306-1.8801 1.2591zm-0.9507-11.051c-0.7343 0.4916-1.7281 0.29485-2.2197-0.43944-0.935-1.3966-2.1377-2.5993-3.5342-3.5342-0.7343-0.49159-0.9311-1.4854-0.4395-2.2196 0.4916-0.7343 1.4854-0.93104 2.2197-0.43944 1.7441 1.1677 3.2454 2.669 4.4131 4.4131 0.4916 0.73429 0.2948 1.7281-0.4394 2.2197zm-8.4848-7.1441c-0.1715 0.86685-1.0132 1.4306-1.8801 1.2591-0.8072-0.1597-1.6429-0.24367-2.4998-0.24367-0.8836 0-1.6-0.71635-1.6-1.6 0-0.88366 0.7164-1.6 1.6-1.6 1.0665 9.324e-8 2.1102 0.10457 3.1208 0.30451 0.8669 0.17149 1.4306 1.0132 1.2591 1.8801z" clip-rule="evenodd" fill="#f7a541" fill-rule="evenodd"/>
   <path d="m16.361 10.4c-3.3665 0-5.9606 2.5799-5.9606 5.5999 0 3.0201 2.5941 5.6 5.9606 5.6 1.6932 0 3.207-0.6609 4.2845-1.7076 0.6339-0.6157 1.6468-0.601 2.2625 0.0328 0.6158 0.6338 0.6011 1.6468-0.0327 2.2625-1.6669 1.6192-3.9775 2.6123-6.5143 2.6123-4.9847 0-9.1606-3.8671-9.1606-8.8 0-4.9328 4.1759-8.8 9.1606-8.8 2.5368 0 4.8474 0.99313 6.5143 2.6124 0.6338 0.6157 0.6485 1.6287 0.0327 2.2625-0.6157 0.6338-1.6286 0.6485-2.2625 0.0328-1.0775-1.0467-2.5913-1.7076-4.2845-1.7076z" clip-rule="evenodd" fill="#f7a541" fill-rule="evenodd"/>
   <path d="m49.551 23c-3.6394 0-6.5509-2.7762-6.5509-6.8414 0-4.0651 2.9115-6.8413 6.5509-6.8413 1.9921 0 3.4096 0.77342 4.4439 1.9433 0.1533 0.1587 0.2299 0.3966 0.2299 0.6346 0 0.5156-0.4023 0.932-0.9003 0.932-0.2873 0-0.5363-0.119-0.6896-0.3173-0.747-0.8725-1.8388-1.4277-3.0839-1.4277-2.5859 0-4.578 2.1019-4.578 5.0764 0 2.9547 1.9921 5.0765 4.578 5.0765 1.2451 0 2.3369-0.5552 3.1031-1.4277 0.1532-0.1983 0.3831-0.3173 0.6704-0.3173 0.498 0 0.9003 0.4164 0.9003 0.932 0 0.238-0.0766 0.4759-0.2299 0.6346-1.0535 1.1699-2.4518 1.9433-4.4439 1.9433z" fill="#2d3142"/>
   <path d="m57.192 11.28c-0.5938 0-1.111-0.5156-1.111-1.1502 0-0.63455 0.5172-1.1303 1.111-1.1303 0.613 0 1.111 0.49575 1.111 1.1303 0 0.6346-0.498 1.1502-1.111 1.1502zm0 11.581c-0.4597 0-0.8428-0.3966-0.8428-0.8924v-7.9915c0-0.4957 0.3831-0.8923 0.862-0.8923 0.4597 0 0.8619 0.3966 0.8619 0.8923v7.9915c0 0.4958-0.4022 0.8924-0.8811 0.8924z" fill="#2d3142"/>
   <path d="m64.957 13.026c0.4981 0 0.7279 0.3966 0.7279 0.8527 0 0.4164-0.3065 0.7734-0.9003 0.8527-0.7662 0.0793-1.8388 0.6544-2.2411 1.3682v5.8697c0 0.4958-0.4022 0.8924-0.8619 0.8924-0.4789 0-0.862-0.3966-0.862-0.8924v-7.9915c0-0.4957 0.3831-0.8923 0.8428-0.8923 0.4789 0 0.8811 0.3966 0.8811 0.8923v0.6743c0.5172-0.7139 1.2451-1.3088 1.9155-1.527 0.2107-0.0594 0.3448-0.0991 0.498-0.0991z" fill="#2d3142"/>
   <path d="m66.717 17.963c0-2.8754 1.9154-5.017 4.712-5.017 1.3217 0 2.2411 0.4362 2.9499 1.1105 0.1532 0.1388 0.2681 0.3767 0.2681 0.5949 0 0.456-0.3447 0.813-0.7662 0.813-0.2107 0-0.383-0.0793-0.5171-0.1983-0.5364-0.5156-1.1302-0.7337-1.858-0.7337-1.8197 0-2.9882 1.4476-2.9882 3.4306s1.1685 3.4504 2.9882 3.4504c0.7278 0 1.3216-0.2181 1.858-0.7337 0.1149-0.119 0.3064-0.1983 0.498-0.1983 0.4405 0 0.7853 0.3569 0.7853 0.7932 0 0.2379-0.1149 0.4759-0.2681 0.6147-0.7088 0.6742-1.6282 1.1105-2.9499 1.1105-2.7966 0-4.712-2.1615-4.712-5.0368z" fill="#2d3142"/>
   <path d="m83.882 13.085c0.4789 0 0.8811 0.3966 0.8811 0.8923v7.9915c0 0.4958-0.4022 0.8924-0.8619 0.8924-0.4789 0-0.862-0.3966-0.862-0.8924v-0.5155c-0.6896 0.7932-1.858 1.5467-3.2946 1.5467-1.9729 0-2.9498-1.0312-2.9498-3.0538v-5.9689c0-0.4957 0.3831-0.8923 0.8619-0.8923 0.4597 0 0.862 0.3966 0.862 0.8923v5.374c0 1.5864 0.7662 2.0623 1.9538 2.0623 1.0726 0 2.0495-0.6346 2.5667-1.3484v-6.0879c0-0.4957 0.3831-0.8923 0.8428-0.8923z" fill="#2d3142"/>
   <path d="m88.337 11.28c-0.5938 0-1.111-0.5156-1.111-1.1502 0-0.63455 0.5172-1.1303 1.111-1.1303 0.6129 0 1.111 0.49575 1.111 1.1303 0 0.6346-0.4981 1.1502-1.111 1.1502zm0 11.581c-0.4597 0-0.8428-0.3966-0.8428-0.8924v-7.9915c0-0.4957 0.3831-0.8923 0.8619-0.8923 0.4598 0 0.862 0.3966 0.862 0.8923v7.9915c0 0.4958-0.4022 0.8924-0.8811 0.8924z" fill="#2d3142"/>
   <path d="m95.547 21.295c0.4406 0 0.7279 0.3173 0.7279 0.7536 0 0.3371-0.1724 0.575-0.4406 0.6742-0.3256 0.1586-0.7662 0.2776-1.3217 0.2776-1.4557 0-2.2027-0.8527-2.2027-2.3598v-5.8895h-0.8812c-0.4022 0-0.7661-0.3569-0.7661-0.7932 0-0.4164 0.3639-0.7734 0.7661-0.7734h0.8812v-1.8243c0-0.4958 0.3831-0.8924 0.8619-0.8924 0.4597 0 0.862 0.3966 0.862 0.8924v1.8243h1.2067c0.4214 0 0.7662 0.357 0.7662 0.7734 0 0.4363-0.3448 0.7932-0.7662 0.7932h-1.2067v5.4929c0 0.6742 0.3065 1.17 0.9003 1.17 0.3256 0 0.4405-0.119 0.6129-0.119z" fill="#2d3142"/>
   <path d="m108.81 23c-3.639 0-6.551-2.7762-6.551-6.8414 0-4.0651 2.912-6.8413 6.551-6.8413 1.992 0 3.409 0.77342 4.444 1.9433 0.153 0.1587 0.23 0.3966 0.23 0.6346 0 0.5156-0.403 0.932-0.901 0.932-0.287 0-0.536-0.119-0.689-0.3173-0.747-0.8725-1.839-1.4277-3.084-1.4277-2.586 0-4.578 2.1019-4.578 5.0764 0 2.9547 1.992 5.0765 4.578 5.0765 1.245 0 2.337-0.5552 3.103-1.4277 0.153-0.1983 0.383-0.3173 0.67-0.3173 0.498 0 0.901 0.4164 0.901 0.932 0 0.238-0.077 0.4759-0.23 0.6346-1.054 1.1699-2.452 1.9433-4.444 1.9433z" fill="#2d3142"/>
   <path d="m119.32 12.946c2.011 0 3.716 0.9122 3.716 3.3513v5.6713c0 0.4958-0.402 0.8924-0.862 0.8924s-0.862-0.3966-0.862-0.8924v-0.2776c-0.709 0.8527-1.781 1.3088-3.026 1.3088-1.533 0-3.218-1.0708-3.218-3.1728 0-2.1813 1.666-3.1331 3.218-3.1331 1.245 0 2.317 0.4164 3.026 1.2691v-1.5864c0-1.1898-0.939-1.9037-2.26-1.9037-0.843 0-1.571 0.2578-2.28 0.8328-0.115 0.0794-0.268 0.1389-0.421 0.1389-0.383 0-0.69-0.3372-0.69-0.7338 0-0.2379 0.115-0.456 0.288-0.575 0.977-0.8131 2.088-1.1898 3.371-1.1898zm-0.383 8.8045c0.958 0 1.858-0.3768 2.375-1.0906v-1.6261c-0.517-0.7139-1.417-1.0907-2.375-1.0907-1.245 0-2.126 0.7734-2.126 1.9037s0.881 1.9037 2.126 1.9037z" fill="#2d3142"/>
   <path d="m130.8 12.946c1.954 0 2.969 1.0708 2.969 3.0935v5.9291c0 0.4958-0.402 0.8924-0.881 0.8924-0.46 0-0.843-0.3966-0.843-0.8924v-5.3342c0-1.5864-0.785-2.102-1.973-2.102-1.073 0-2.049 0.6742-2.547 1.3881v6.0481c0 0.4958-0.403 0.8924-0.862 0.8924-0.479 0-0.862-0.3966-0.862-0.8924v-7.9915c0-0.4957 0.383-0.8923 0.842-0.8923 0.479 0 0.882 0.3966 0.882 0.8923v0.5354c0.632-0.7535 1.858-1.5665 3.275-1.5665z" fill="#2d3142"/>
   <path d="m143.38 13.085c0.479 0 0.862 0.3966 0.862 0.8923 0 0.119-0.038 0.238-0.077 0.357l-3.045 7.6742c-0.211 0.5156-0.69 0.8527-1.226 0.8527-0.575 0-1.054-0.3371-1.245-0.8527l-3.065-7.6941c-0.038-0.0991-0.058-0.2181-0.058-0.3371 0-0.4957 0.364-0.8923 0.843-0.8923 0.345 0 0.69 0.2379 0.805 0.5552l2.701 7.0992 2.7-7.0992c0.115-0.3173 0.441-0.5552 0.805-0.5552z" fill="#2d3142"/>
   <path d="m149.74 12.946c2.011 0 3.716 0.9122 3.716 3.3513v5.6713c0 0.4958-0.403 0.8924-0.862 0.8924-0.46 0-0.862-0.3966-0.862-0.8924v-0.2776c-0.709 0.8527-1.782 1.3088-3.027 1.3088-1.532 0-3.218-1.0708-3.218-3.1728 0-2.1813 1.667-3.1331 3.218-3.1331 1.245 0 2.318 0.4164 3.027 1.2691v-1.5864c0-1.1898-0.939-1.9037-2.261-1.9037-0.842 0-1.57 0.2578-2.279 0.8328-0.115 0.0794-0.268 0.1389-0.421 0.1389-0.384 0-0.69-0.3372-0.69-0.7338 0-0.2379 0.115-0.456 0.287-0.575 0.977-0.8131 2.088-1.1898 3.372-1.1898zm-0.384 8.8045c0.958 0 1.858-0.3768 2.376-1.0906v-1.6261c-0.518-0.7139-1.418-1.0907-2.376-1.0907-1.245 0-2.126 0.7734-2.126 1.9037s0.881 1.9037 2.126 1.9037z" fill="#2d3142"/>
   <path d="m155.89 21.929c-0.192-0.1388-0.326-0.3768-0.326-0.6346 0-0.4362 0.326-0.7734 0.747-0.7734 0.153 0 0.306 0.0595 0.421 0.1389 0.709 0.5354 1.629 0.9121 2.605 0.9121 1.303 0 1.993-0.5552 1.993-1.3682 0-0.9519-1.054-1.2692-2.242-1.5468-1.57-0.3767-3.409-0.813-3.409-2.8753 0-1.5269 1.264-2.8357 3.524-2.8357 1.284 0 2.299 0.3966 3.084 0.9915 0.173 0.1388 0.307 0.3371 0.307 0.5949 0 0.3966-0.326 0.7337-0.709 0.7337-0.134 0-0.287-0.0595-0.383-0.1388-0.594-0.4561-1.398-0.7337-2.279-0.7337-1.169 0-1.897 0.4759-1.897 1.2493 0 0.8328 0.996 1.1104 2.146 1.3881 1.609 0.3767 3.524 0.8328 3.524 3.034 0 1.6458-1.303 2.9348-3.735 2.9348-1.284 0-2.433-0.3371-3.371-1.0708z" fill="#2d3142"/>
  </g>
 </g>
</g></svg>